<?xml version="1.0" encoding="UTF-8" standalone="no"?>
<!-- Created with Inkscape (http://www.inkscape.org/) -->

<svg
   xmlns:dc="http://purl.org/dc/elements/1.1/"
   xmlns:cc="http://creativecommons.org/ns#"
   xmlns:rdf="http://www.w3.org/1999/02/22-rdf-syntax-ns#"
   xmlns:svg="http://www.w3.org/2000/svg"
   xmlns="http://www.w3.org/2000/svg"
   xmlns:sodipodi="http://sodipodi.sourceforge.net/DTD/sodipodi-0.dtd"
   xmlns:inkscape="http://www.inkscape.org/namespaces/inkscape"
   width="175"
   height="175"
   id="svg2"
   version="1.1"
   inkscape:version="0.48.2 r9819"
   sodipodi:docname="sprite.svg"
   inkscape:export-filename="./sprite.png"
   inkscape:export-xdpi="90"
   inkscape:export-ydpi="90">
  <defs
     id="defs4" />
  <sodipodi:namedview
     id="base"
     pagecolor="#ffffff"
     bordercolor="#666666"
     borderopacity="1.0"
     inkscape:pageopacity="0.0"
     inkscape:pageshadow="2"
     inkscape:zoom="1"
     inkscape:cx="158.18911"
     inkscape:cy="162.99149"
     inkscape:document-units="px"
     inkscape:current-layer="layer2"
     showgrid="false"
     inkscape:window-width="1165"
     inkscape:window-height="740"
     inkscape:window-x="41"
     inkscape:window-y="0"
     inkscape:window-maximized="0"
     showguides="true"
     inkscape:guide-bbox="true">
    <inkscape:grid
       type="xygrid"
       id="grid4360"
       empspacing="5"
       visible="true"
       enabled="true"
       snapvisiblegridlinesonly="true"
       empcolor="#000000"
       empopacity="0.14509804"
       color="#000000"
       opacity="0.0627451" />
  </sodipodi:namedview>
  <metadata
     id="metadata7">
    <rdf:RDF>
      <cc:Work
         rdf:about="">
        <dc:format>image/svg+xml</dc:format>
        <dc:type
           rdf:resource="http://purl.org/dc/dcmitype/StillImage" />
        <dc:title></dc:title>
      </cc:Work>
    </rdf:RDF>
  </metadata>
  <g
     inkscape:groupmode="layer"
     id="layer2"
     inkscape:label="underlay"
     style="display:none"
     transform="translate(0,-75)">
    <rect
       style="color:#000000;fill:#ececec;fill-opacity:1;fill-rule:nonzero;stroke:none;stroke-width:1;marker:none;visibility:visible;display:inline;overflow:visible;enable-background:accumulate"
       id="rect4362"
       width="175"
       height="175"
       x="0"
       y="75" />
    <rect
       style="color:#000000;fill:#cccccc;fill-opacity:1;fill-rule:nonzero;stroke:none;stroke-width:1;marker:none;visibility:visible;display:inline;overflow:visible;enable-background:accumulate"
       id="rect3064"
       width="20"
       height="20"
       x="150"
       y="75" />
  </g>
  <g
     inkscape:label="sprite"
     inkscape:groupmode="layer"
     id="layer1"
     transform="translate(0,-877.36218)"
     style="display:inline">
    <path
       style="color:#000000;fill:#049fd9;fill-opacity:1;fill-rule:nonzero;stroke:none;stroke-width:1;marker:none;visibility:visible;display:inline;overflow:visible;enable-background:accumulate"
       d="m 0,907.36218 0,40 40,0 0,-40 z m 20,8 11,5 0,2 -22,0 0,-2 z m -9,9 3,0 0,8 -3,0 z m 5,0 3.0625,0 0,8 -3.0625,0 z m 5,0 3,0 0,8 -3,0 z m 5,0 3,0 0,8 -3,0 z m -17,10 22,0 0,3 -22,0 z"
       id="rect13285"
       inkscape:connector-curvature="0"
       sodipodi:nodetypes="cccccccccccccccccccccccccccccccccccc" />
    <path
       style="color:#000000;fill:#ff5640;fill-opacity:1;fill-rule:nonzero;stroke:none;stroke-width:1;marker:none;visibility:visible;display:inline;overflow:visible;enable-background:accumulate"
       d="m 45,907.36218 0,40 40,0 0,-40 z m 17,10.125 6,0 0,7 7,0 0,6 -7,0 0,7 -6,0 0,-7 -7,0 0,-6 7,0 z"
       id="rect13305"
       inkscape:connector-curvature="0"
       sodipodi:nodetypes="cccccccccccccccccc" />
    <path
       sodipodi:nodetypes="ccccc"
       inkscape:connector-curvature="0"
       id="path13368"
       d="m 90,907.36218 0,40 40,0 0,-40 z"
       style="color:#000000;fill:#6ab139;fill-opacity:1;fill-rule:nonzero;stroke:none;stroke-width:1;marker:none;visibility:visible;display:inline;overflow:visible;enable-background:accumulate" />
    <rect
       style="color:#000000;fill:#ffffff;fill-opacity:1;fill-rule:nonzero;stroke:none;stroke-width:1;marker:none;visibility:visible;display:inline;overflow:visible;enable-background:accumulate"
       id="rect13370"
       width="3"
       height="20.000002"
       x="104"
       y="917.36218" />
    <path
       sodipodi:nodetypes="zczcz"
       inkscape:connector-curvature="0"
       id="path13376"
       d="m 115.06289,922.45983 c 2.12132,-2.12132 1.41421,-4.94975 1.41421,-4.94975 0,0 -2.82843,-0.70711 -4.94975,1.41422 -2.12132,2.12132 -1.41421,4.94974 -1.41421,4.94974 0,0 2.82843,0.70711 4.94975,-1.41421 z"
       style="fill:#ffffff;fill-opacity:1;stroke:none;display:inline" />
    <path
       style="fill:#ffffff;fill-opacity:1;stroke:none;display:inline"
       d="m 115.06289,930.45983 c 2.12132,-2.12132 1.41421,-4.94975 1.41421,-4.94975 0,0 -2.82843,-0.70711 -4.94975,1.41422 -2.12132,2.12132 -1.41421,4.94974 -1.41421,4.94974 0,0 2.82843,0.70711 4.94975,-1.41421 z"
       id="path13378"
       inkscape:connector-curvature="0"
       sodipodi:nodetypes="zczcz" />
    <path
       sodipodi:nodetypes="ccccc"
       inkscape:connector-curvature="0"
       id="path13401"
       d="m 135,907.36218 0,40 40,0 0,-40 z"
       style="color:#000000;fill:#c8c605;fill-opacity:1;fill-rule:nonzero;stroke:none;stroke-width:1;marker:none;visibility:visible;display:inline;overflow:visible;enable-background:accumulate" />
    <path
       sodipodi:nodetypes="ccccc"
       inkscape:connector-curvature="0"
       id="path13403"
       d="m 144,927.36218 c 0,5 3,10 6,10 l 10,0 c 4,0 6,-5 6,-10 z"
       style="fill:#ffffff;fill-opacity:1;stroke:none" />
    <path
       sodipodi:nodetypes="ccczcc"
       inkscape:connector-curvature="0"
       id="path13405"
       d="m 154,925.36218 4.70432,0 4.70431,-4.63578 c 0,0 1.33058,-1.47027 0,-2.78147 -1.33058,-1.31119 -2.82259,0 -2.82259,0 z"
       style="fill:#ffffff;fill-opacity:1;stroke:none" />
    <rect
       style="color:#000000;fill:#ffe500;fill-opacity:1;fill-rule:nonzero;stroke:none;stroke-width:1;marker:none;visibility:visible;display:inline;overflow:visible;enable-background:accumulate"
       id="rect13435"
       width="20"
       height="20.00001"
       x="195"
       y="882.36218" />
    <rect
       y="922.36218"
       x="195"
       height="20.00001"
       width="20"
       id="rect13437"
       style="color:#000000;fill:#cce70c;fill-opacity:1;fill-rule:nonzero;stroke:none;stroke-width:1;marker:none;visibility:visible;display:inline;overflow:visible;enable-background:accumulate" />
    <rect
       style="color:#000000;fill:#fd8100;fill-opacity:1;fill-rule:nonzero;stroke:none;stroke-width:1;marker:none;visibility:visible;display:inline;overflow:visible;enable-background:accumulate"
       id="rect13439"
       width="20"
       height="20.00001"
       x="195"
       y="962.36218" />
    <rect
       y="1002.3622"
       x="195"
       height="20.00001"
       width="20"
       id="rect13441"
       style="color:#000000;fill:#cbecf3;fill-opacity:1;fill-rule:nonzero;stroke:none;stroke-width:1;marker:none;visibility:visible;display:inline;overflow:visible;enable-background:accumulate" />
    <rect
       y="902.36218"
       x="195"
       height="19.999998"
       width="20"
       id="rect13443"
       style="color:#000000;fill:#fbb3d9;fill-opacity:1;fill-rule:nonzero;stroke:none;stroke-width:1;marker:none;visibility:visible;display:inline;overflow:visible;enable-background:accumulate" />
    <rect
       style="color:#000000;fill:#fc351e;fill-opacity:1;fill-rule:nonzero;stroke:none;stroke-width:1;marker:none;visibility:visible;display:inline;overflow:visible;enable-background:accumulate"
       id="rect13445"
       width="20"
       height="19.999998"
       x="195"
       y="942.36218" />
    <rect
       y="982.36218"
       x="195"
       height="19.999998"
       width="20"
       id="rect13447"
       style="color:#000000;fill:#7fc41c;fill-opacity:1;fill-rule:nonzero;stroke:none;stroke-width:1;marker:none;visibility:visible;display:inline;overflow:visible;enable-background:accumulate" />
    <rect
       style="color:#000000;fill:#50aacd;fill-opacity:1;fill-rule:nonzero;stroke:none;stroke-width:1;marker:none;visibility:visible;display:inline;overflow:visible;enable-background:accumulate"
       id="rect13449"
       width="20"
       height="19.999998"
       x="195"
       y="1022.3622" />
    <text
       xml:space="preserve"
       style="font-size:40px;font-style:normal;font-variant:normal;font-weight:normal;font-stretch:normal;line-height:125%;letter-spacing:0px;word-spacing:0px;fill:#333333;fill-opacity:1;stroke:none;font-family:Sans;-inkscape-font-specification:Helvetica"
       x="226"
       y="894.36218"
       id="text13489"
       sodipodi:linespacing="125%"><tspan
         sodipodi:role="line"
         id="tspan13491"
         x="226"
         y="894.36218"
         style="font-size:10px;font-style:normal;font-variant:normal;font-weight:bold;font-stretch:normal;fill:#333333;fill-opacity:1;font-family:Helvetica Neue LT Std;-inkscape-font-specification:Helvetica Neue LT Std Bold">Poverty</tspan></text>
    <text
       sodipodi:linespacing="125%"
       id="text13493"
       y="914.36218"
       x="226"
       style="font-size:40px;font-style:normal;font-variant:normal;font-weight:normal;font-stretch:normal;line-height:125%;letter-spacing:0px;word-spacing:0px;fill:#333333;fill-opacity:1;stroke:none;font-family:Sans;-inkscape-font-specification:Helvetica"
       xml:space="preserve"><tspan
         style="font-size:10px;font-style:normal;font-variant:normal;font-weight:bold;font-stretch:normal;fill:#333333;fill-opacity:1;font-family:Helvetica Neue LT Std;-inkscape-font-specification:Helvetica Neue LT Std Bold"
         y="914.36218"
         x="226"
         id="tspan13495"
         sodipodi:role="line">Health</tspan></text>
    <text
       xml:space="preserve"
       style="font-size:40px;font-style:normal;font-variant:normal;font-weight:normal;font-stretch:normal;line-height:125%;letter-spacing:0px;word-spacing:0px;fill:#333333;fill-opacity:1;stroke:none;font-family:Sans;-inkscape-font-specification:Helvetica"
       x="226"
       y="934.36218"
       id="text13497"
       sodipodi:linespacing="125%"><tspan
         sodipodi:role="line"
         id="tspan13499"
         x="226"
         y="934.36218"
         style="font-size:10px;font-style:normal;font-variant:normal;font-weight:bold;font-stretch:normal;fill:#333333;fill-opacity:1;font-family:Helvetica Neue LT Std;-inkscape-font-specification:Helvetica Neue LT Std Bold">Education</tspan></text>
    <text
       sodipodi:linespacing="125%"
       id="text13501"
       y="954.36218"
       x="226"
       style="font-size:40px;font-style:normal;font-variant:normal;font-weight:normal;font-stretch:normal;line-height:125%;letter-spacing:0px;word-spacing:0px;fill:#333333;fill-opacity:1;stroke:none;font-family:Sans;-inkscape-font-specification:Helvetica"
       xml:space="preserve"><tspan
         style="font-size:10px;font-style:normal;font-variant:normal;font-weight:bold;font-stretch:normal;fill:#333333;fill-opacity:1;font-family:Helvetica Neue LT Std;-inkscape-font-specification:Helvetica Neue LT Std Bold"
         y="954.36218"
         x="226"
         id="tspan13503"
         sodipodi:role="line">Disease</tspan></text>
    <text
       xml:space="preserve"
       style="font-size:40px;font-style:normal;font-variant:normal;font-weight:normal;font-stretch:normal;line-height:125%;letter-spacing:0px;word-spacing:0px;fill:#333333;fill-opacity:1;stroke:none;font-family:Sans;-inkscape-font-specification:Helvetica"
       x="226"
       y="974.36218"
       id="text13505"
       sodipodi:linespacing="125%"><tspan
         sodipodi:role="line"
         id="tspan13507"
         x="226"
         y="974.36218"
         style="font-size:10px;font-style:normal;font-variant:normal;font-weight:bold;font-stretch:normal;fill:#333333;fill-opacity:1;font-family:Helvetica Neue LT Std;-inkscape-font-specification:Helvetica Neue LT Std Bold">Gender Equality</tspan></text>
    <text
       sodipodi:linespacing="125%"
       id="text13509"
       y="994.36218"
       x="226"
       style="font-size:40px;font-style:normal;font-variant:normal;font-weight:normal;font-stretch:normal;line-height:125%;letter-spacing:0px;word-spacing:0px;fill:#333333;fill-opacity:1;stroke:none;font-family:Sans;-inkscape-font-specification:Helvetica"
       xml:space="preserve"><tspan
         style="font-size:10px;font-style:normal;font-variant:normal;font-weight:bold;font-stretch:normal;fill:#333333;fill-opacity:1;font-family:Helvetica Neue LT Std;-inkscape-font-specification:Helvetica Neue LT Std Bold"
         y="994.36218"
         x="226"
         id="tspan13511"
         sodipodi:role="line">Environment</tspan></text>
    <text
       xml:space="preserve"
       style="font-size:40px;font-style:normal;font-variant:normal;font-weight:normal;font-stretch:normal;line-height:125%;letter-spacing:0px;word-spacing:0px;fill:#333333;fill-opacity:1;stroke:none;font-family:Sans;-inkscape-font-specification:Helvetica"
       x="226"
       y="1014.3622"
       id="text13513"
       sodipodi:linespacing="125%"><tspan
         sodipodi:role="line"
         id="tspan13515"
         x="226"
         y="1014.3622"
         style="font-size:10px;font-style:normal;font-variant:normal;font-weight:bold;font-stretch:normal;fill:#333333;fill-opacity:1;font-family:Helvetica Neue LT Std;-inkscape-font-specification:Helvetica Neue LT Std Bold">Child Mortality</tspan></text>
    <text
       sodipodi:linespacing="125%"
       id="text13517"
       y="1034.3622"
       x="226"
       style="font-size:40px;font-style:normal;font-variant:normal;font-weight:normal;font-stretch:normal;line-height:125%;letter-spacing:0px;word-spacing:0px;fill:#333333;fill-opacity:1;stroke:none;font-family:Sans;-inkscape-font-specification:Helvetica"
       xml:space="preserve"><tspan
         style="font-size:10px;font-style:normal;font-variant:normal;font-weight:bold;font-stretch:normal;fill:#333333;fill-opacity:1;font-family:Helvetica Neue LT Std;-inkscape-font-specification:Helvetica Neue LT Std Bold"
         y="1034.3622"
         x="226"
         id="tspan13519"
         sodipodi:role="line">Partnership</tspan></text>
    <path
       style="fill:#333333;fill-opacity:1;stroke:none"
       d="m 4,954.36218 0,16 12,0 0,-13 -4,0 0,-3 -8,0 z m 9,0 0,2 3,0 0,-2 -3,0 z m -7,5 8,0 0,1 -8,0 0,-1 z m 0,2 8,0 0,1 -8,0 0,-1 z m 0,2 8,0 0,1 -8,0 0,-1 z m 0,2 8,0 0,1 -8,0 0,-1 z"
       id="path13523"
       inkscape:connector-curvature="0" />
    <rect
       transform="matrix(0.70710678,0.70710678,-0.70710678,0.70710678,0,0)"
       style="color:#000000;fill:#ffffff;fill-opacity:1;fill-rule:nonzero;stroke:none;stroke-width:1;marker:none;visibility:visible;display:inline;overflow:visible;enable-background:accumulate"
       id="rect15156"
       width="2"
       height="8"
       x="743.83899"
       y="729.52527" />
    <rect
       y="-748.83899"
       x="732.52527"
       height="8"
       width="2.0000005"
       id="rect15158"
       style="color:#000000;fill:#ffffff;fill-opacity:1;fill-rule:nonzero;stroke:none;stroke-width:1;marker:none;visibility:visible;display:inline;overflow:visible;enable-background:accumulate"
       transform="matrix(-0.70710678,0.70710678,-0.70710678,-0.70710678,0,0)" />
    <path
       style="color:#000000;fill:#7b39b1;fill-opacity:1;fill-rule:nonzero;stroke:none;stroke-width:1;marker:none;visibility:visible;display:inline;overflow:visible;enable-background:accumulate"
       d="m 45,952.36214 0,40.00006 40,0 0,-40.00006 z"
       id="path32076"
       inkscape:connector-curvature="0"
       sodipodi:nodetypes="ccccc" />
    <path
       sodipodi:nodetypes="cccccccccccc"
       inkscape:connector-curvature="0"
       id="path32078"
       d="m 53,963.3622 0,14.9698 10,0.0302 0,-11 -4,0 0,-4 z m 7,-2e-5 0,3 3,0 0,-2.9698 z"
       style="color:#000000;fill:#ffffff;fill-opacity:1;fill-rule:nonzero;stroke:none;stroke-width:1;marker:none;visibility:visible;display:inline;overflow:visible;enable-background:accumulate" />
    <path
       sodipodi:nodetypes="ccccc"
       inkscape:connector-curvature="0"
       style="color:#000000;fill:#ffffff;fill-opacity:1;fill-rule:nonzero;stroke:none;stroke-width:1;marker:none;visibility:visible;display:inline;overflow:visible;enable-background:accumulate"
       d="m 67,966.36218 0,11 8,0 0,-11 z"
       id="path32080" />
    <path
       sodipodi:nodetypes="ccccccc"
       id="path32082"
       d="m 70,978.36218 0,1 7,0 0,-11 -1,0 0,10 z"
       style="color:#000000;fill:#ffffff;fill-opacity:1;fill-rule:nonzero;stroke:none;stroke-width:1;marker:none;visibility:visible;display:inline;overflow:visible;enable-background:accumulate"
       inkscape:connector-curvature="0" />
    <rect
       y="967.36218"
       x="72"
       height="3.000015"
       width="1.0000018"
       id="rect32084"
       style="color:#000000;fill:#7b39b1;fill-opacity:1;fill-rule:nonzero;stroke:none;stroke-width:1;marker:none;visibility:visible;display:inline;overflow:visible;enable-background:accumulate" />
    <rect
       style="color:#000000;fill:#7b39b1;fill-opacity:1;fill-rule:nonzero;stroke:none;stroke-width:1;marker:none;visibility:visible;display:inline;overflow:visible;enable-background:accumulate"
       id="rect32669"
       width="1.0000018"
       height="3.000015"
       x="968.36218"
       y="-74.000008"
       transform="matrix(0,1,-1,0,0,0)" />
    <path
       inkscape:connector-curvature="0"
       id="path32671"
       d="m 4,979.36218 0,16 12,0 0,-3 -9,0 0,-13 z"
       style="fill:#62ccff;fill-opacity:1;stroke:none"
       sodipodi:nodetypes="ccccccc" />
    <path
       style="color:#000000;fill:#62ccff;fill-opacity:1;fill-rule:nonzero;stroke:none;stroke-width:1;marker:none;visibility:visible;display:inline;overflow:visible;enable-background:accumulate"
       d="m 13,982.36218 0,2 -2,0 0,2 2,0 0,2 2,0 0,-2 2,0 0,-2 -2,0 0,-2 z"
       id="rect32673"
       inkscape:connector-curvature="0"
       sodipodi:nodetypes="ccccccccccccc" />
    <path
       style="color:#000000;fill:#ffffff;fill-opacity:1;fill-rule:nonzero;stroke:none;stroke-width:1;marker:none;visibility:visible;display:inline;overflow:visible;enable-background:accumulate"
       d="m 82.272542,884.08964 3,3 -3,3 c -1,1 1,3 2,2 l 5,-5 -4.844927,-4.74155 c -1.155073,-1.25845 -3.103383,0.79323 -2.155073,1.74155 z"
       id="rect7239"
       inkscape:connector-curvature="0"
       sodipodi:nodetypes="ccccccc" />
    <path
       style="color:#000000;fill:#0055aa;fill-opacity:1;fill-rule:nonzero;stroke:none;stroke-width:1;marker:none;visibility:visible;display:inline;overflow:visible;enable-background:accumulate"
       d="m 34,883.36218 0,3 -3,0 0,2 3,0 0,3 2,0 0,-3 3,0 0,-2 -3,0 0,-3 -2,0 z"
       id="rect7227"
       inkscape:connector-curvature="0" />
    <path
       style="color:#000000;fill:#333333;fill-opacity:1;fill-rule:nonzero;stroke:none;stroke-width:1;marker:none;visibility:visible;display:inline;overflow:visible;enable-background:accumulate"
       d="M 7.40625,884.29968 6,885.70593 l 2.125,2.125 -2.125,2.125 1.40625,1.40625 2.125,-2.125 2.125,2.125 1.40625,-1.40625 -2.125,-2.125 2.125,-2.125 -1.40625,-1.40625 -2.125,2.125 -2.125,-2.125 z"
       id="rect7233"
       inkscape:connector-curvature="0" />
    <rect
       transform="matrix(0,1,-1,0,0,0)"
       style="color:#000000;fill:#0055aa;fill-opacity:1;fill-rule:nonzero;stroke:none;stroke-width:1;marker:none;visibility:visible;display:inline;overflow:visible;enable-background:accumulate"
       id="rect7237"
       width="2.0000005"
       height="6"
       x="886.36218"
       y="-63" />
    <path
       sodipodi:nodetypes="ccccccc"
       inkscape:connector-curvature="0"
       id="path3067"
       d="m 113,884.08964 -3,3 3,3 c 1,1 -1,3 -2,2 l -5,-5 4.84493,-4.74155 C 112,881.08964 113.94831,883.14132 113,884.08964 z"
       style="color:#000000;fill:#ffffff;fill-opacity:1;fill-rule:nonzero;stroke:none;stroke-width:1;marker:none;visibility:visible;display:inline;overflow:visible;enable-background:accumulate" />
    <path
       transform="translate(0,802.36218)"
       sodipodi:nodetypes="cccccccccccccccccccc"
       style="display:inline;fill:#ffffff;fill-opacity:1;stroke:none"
       d="m 127,79 0,2 0,8 0,2 2,0 14,0 0,-2 0,-8 0,-2 -2,0 z m 3,2 10,0 1,1 0,6 -1,1 -10,0 -1,-1 0,-6 z"
       id="path3991"
       inkscape:connector-curvature="0" />
    <rect
       style="color:#000000;fill:#ffffff;fill-opacity:1;fill-rule:nonzero;stroke:none;stroke-width:1;marker:none;visibility:visible;display:inline;overflow:visible;enable-background:accumulate"
       id="rect3997"
       width="8"
       height="4"
       x="131"
       y="885.36218" />
    <path
       transform="translate(0,802.36218)"
       inkscape:connector-curvature="0"
       id="path3337"
       d="m 152,79 0,2 0,8 0,2 2,0 14,0 0,-2 0,-8 0,-2 -2,0 z m 3,2 10,0 1,1 0,6 -1,1 -10,0 -1,-1 0,-6 z"
       style="display:inline;fill:#ffffff;fill-opacity:1;stroke:none"
       sodipodi:nodetypes="cccccccccccccccccccc" />
    <rect
       y="887.36218"
       x="160"
       height="2.0000026"
       width="4"
       id="rect3339"
       style="color:#000000;fill:#ffffff;fill-opacity:1;fill-rule:nonzero;stroke:none;stroke-width:1;marker:none;visibility:visible;display:inline;overflow:visible;enable-background:accumulate" />
  </g>
</svg>
