<?xml version="1.0" encoding="UTF-8" standalone="no"?>
<!-- Created with Inkscape (http://www.inkscape.org/) -->

<svg
   xmlns:dc="http://purl.org/dc/elements/1.1/"
   xmlns:cc="http://creativecommons.org/ns#"
   xmlns:rdf="http://www.w3.org/1999/02/22-rdf-syntax-ns#"
   xmlns:svg="http://www.w3.org/2000/svg"
   xmlns="http://www.w3.org/2000/svg"
   xmlns:sodipodi="http://sodipodi.sourceforge.net/DTD/sodipodi-0.dtd"
   xmlns:inkscape="http://www.inkscape.org/namespaces/inkscape"
   width="280"
   height="175"
   id="svg2"
   version="1.1"
   inkscape:version="0.48.2 r9819"
   sodipodi:docname="sprite.svg"
   inkscape:export-filename="./sprite.png"
   inkscape:export-xdpi="90"
   inkscape:export-ydpi="90">
  <defs
     id="defs4" />
  <sodipodi:namedview
     id="base"
     pagecolor="#ffffff"
     bordercolor="#666666"
     borderopacity="1.0"
     inkscape:pageopacity="0.0"
     inkscape:pageshadow="2"
     inkscape:zoom="16"
     inkscape:cx="12.801753"
     inkscape:cy="59.784471"
     inkscape:document-units="px"
     inkscape:current-layer="layer1"
     showgrid="false"
     inkscape:window-width="1165"
     inkscape:window-height="740"
     inkscape:window-x="103"
     inkscape:window-y="0"
     inkscape:window-maximized="0"
     showguides="true"
     inkscape:guide-bbox="true">
    <inkscape:grid
       type="xygrid"
       id="grid4360"
       empspacing="5"
       visible="true"
       enabled="true"
       snapvisiblegridlinesonly="true"
       empcolor="#000000"
       empopacity="0.14509804"
       color="#000000"
       opacity="0.0627451" />
  </sodipodi:namedview>
  <metadata
     id="metadata7">
    <rdf:RDF>
      <cc:Work
         rdf:about="">
        <dc:format>image/svg+xml</dc:format>
        <dc:type
           rdf:resource="http://purl.org/dc/dcmitype/StillImage" />
        <dc:title></dc:title>
      </cc:Work>
    </rdf:RDF>
  </metadata>
  <g
     inkscape:groupmode="layer"
     id="layer2"
     inkscape:label="underlay"
     style="display:none"
     transform="translate(0,-75)">
    <rect
       style="color:#000000;fill:#ececec;fill-opacity:1;fill-rule:nonzero;stroke:none;stroke-width:1;marker:none;visibility:visible;display:inline;overflow:visible;enable-background:accumulate"
       id="rect4362"
       width="280"
       height="175"
       x="0"
       y="75" />
    <rect
       style="color:#000000;fill:#cccccc;fill-opacity:1;fill-rule:nonzero;stroke:none;stroke-width:1;marker:none;visibility:visible;display:inline;overflow:visible;enable-background:accumulate"
       id="rect3064"
       width="20"
       height="20"
       x="150"
       y="75" />
  </g>
  <g
     inkscape:label="sprite"
     inkscape:groupmode="layer"
     id="layer1"
     transform="translate(0,-877.36218)"
     style="display:inline">
    <path
       style="color:#000000;fill:#003366;fill-opacity:1;fill-rule:nonzero;stroke:none;stroke-width:1;marker:none;visibility:visible;display:inline;overflow:visible;enable-background:accumulate"
       d="M 9 131 C 4.5817218 131 1 134.5817 1 139 C 1 143.4183 4.5817218 147 9 147 C 13.418279 147 17 143.4183 17 139 C 17 134.5817 13.418279 131 9 131 z M 8 135 L 10 135 L 10 138 L 13 138 L 13 140 L 10 140 L 10 143 L 8 143 L 8 140 L 5 140 L 5 138 L 8 138 L 8 135 z "
       transform="translate(0,877.36218)"
       id="path4279" />
    <rect
       style="color:#000000;fill:#ffe500;fill-opacity:1;fill-rule:nonzero;stroke:none;stroke-width:1;marker:none;visibility:visible;display:inline;overflow:visible;enable-background:accumulate"
       id="rect13435"
       width="20"
       height="20.00001"
       x="300"
       y="882.36218" />
    <rect
       y="922.36218"
       x="300"
       height="20.00001"
       width="20"
       id="rect13437"
       style="color:#000000;fill:#cce70c;fill-opacity:1;fill-rule:nonzero;stroke:none;stroke-width:1;marker:none;visibility:visible;display:inline;overflow:visible;enable-background:accumulate" />
    <rect
       style="color:#000000;fill:#fd8100;fill-opacity:1;fill-rule:nonzero;stroke:none;stroke-width:1;marker:none;visibility:visible;display:inline;overflow:visible;enable-background:accumulate"
       id="rect13439"
       width="20"
       height="20.00001"
       x="300"
       y="962.36218" />
    <rect
       y="1002.3622"
       x="300"
       height="20.00001"
       width="20"
       id="rect13441"
       style="color:#000000;fill:#cbecf3;fill-opacity:1;fill-rule:nonzero;stroke:none;stroke-width:1;marker:none;visibility:visible;display:inline;overflow:visible;enable-background:accumulate" />
    <rect
       y="902.36218"
       x="300"
       height="19.999998"
       width="20"
       id="rect13443"
       style="color:#000000;fill:#fbb3d9;fill-opacity:1;fill-rule:nonzero;stroke:none;stroke-width:1;marker:none;visibility:visible;display:inline;overflow:visible;enable-background:accumulate" />
    <rect
       style="color:#000000;fill:#fc351e;fill-opacity:1;fill-rule:nonzero;stroke:none;stroke-width:1;marker:none;visibility:visible;display:inline;overflow:visible;enable-background:accumulate"
       id="rect13445"
       width="20"
       height="19.999998"
       x="300"
       y="942.36218" />
    <rect
       y="982.36218"
       x="300"
       height="19.999998"
       width="20"
       id="rect13447"
       style="color:#000000;fill:#7fc41c;fill-opacity:1;fill-rule:nonzero;stroke:none;stroke-width:1;marker:none;visibility:visible;display:inline;overflow:visible;enable-background:accumulate" />
    <rect
       style="color:#000000;fill:#50aacd;fill-opacity:1;fill-rule:nonzero;stroke:none;stroke-width:1;marker:none;visibility:visible;display:inline;overflow:visible;enable-background:accumulate"
       id="rect13449"
       width="20"
       height="19.999998"
       x="300"
       y="1022.3622" />
    <text
       xml:space="preserve"
       style="font-size:40px;font-style:normal;font-variant:normal;font-weight:normal;font-stretch:normal;line-height:125%;letter-spacing:0px;word-spacing:0px;fill:#333333;fill-opacity:1;stroke:none;font-family:Sans;-inkscape-font-specification:Helvetica"
       x="331"
       y="894.36218"
       id="text13489"
       sodipodi:linespacing="125%"><tspan
         sodipodi:role="line"
         id="tspan13491"
         x="331"
         y="894.36218"
         style="font-size:10px;font-style:normal;font-variant:normal;font-weight:bold;font-stretch:normal;fill:#333333;fill-opacity:1;font-family:Helvetica Neue LT Std;-inkscape-font-specification:Helvetica Neue LT Std Bold">Poverty</tspan></text>
    <text
       sodipodi:linespacing="125%"
       id="text13493"
       y="914.36218"
       x="331"
       style="font-size:40px;font-style:normal;font-variant:normal;font-weight:normal;font-stretch:normal;line-height:125%;letter-spacing:0px;word-spacing:0px;fill:#333333;fill-opacity:1;stroke:none;font-family:Sans;-inkscape-font-specification:Helvetica"
       xml:space="preserve"><tspan
         style="font-size:10px;font-style:normal;font-variant:normal;font-weight:bold;font-stretch:normal;fill:#333333;fill-opacity:1;font-family:Helvetica Neue LT Std;-inkscape-font-specification:Helvetica Neue LT Std Bold"
         y="914.36218"
         x="331"
         id="tspan13495"
         sodipodi:role="line">Health</tspan></text>
    <text
       xml:space="preserve"
       style="font-size:40px;font-style:normal;font-variant:normal;font-weight:normal;font-stretch:normal;line-height:125%;letter-spacing:0px;word-spacing:0px;fill:#333333;fill-opacity:1;stroke:none;font-family:Sans;-inkscape-font-specification:Helvetica"
       x="331"
       y="934.36218"
       id="text13497"
       sodipodi:linespacing="125%"><tspan
         sodipodi:role="line"
         id="tspan13499"
         x="331"
         y="934.36218"
         style="font-size:10px;font-style:normal;font-variant:normal;font-weight:bold;font-stretch:normal;fill:#333333;fill-opacity:1;font-family:Helvetica Neue LT Std;-inkscape-font-specification:Helvetica Neue LT Std Bold">Education</tspan></text>
    <text
       sodipodi:linespacing="125%"
       id="text13501"
       y="954.36218"
       x="331"
       style="font-size:40px;font-style:normal;font-variant:normal;font-weight:normal;font-stretch:normal;line-height:125%;letter-spacing:0px;word-spacing:0px;fill:#333333;fill-opacity:1;stroke:none;font-family:Sans;-inkscape-font-specification:Helvetica"
       xml:space="preserve"><tspan
         style="font-size:10px;font-style:normal;font-variant:normal;font-weight:bold;font-stretch:normal;fill:#333333;fill-opacity:1;font-family:Helvetica Neue LT Std;-inkscape-font-specification:Helvetica Neue LT Std Bold"
         y="954.36218"
         x="331"
         id="tspan13503"
         sodipodi:role="line">Disease</tspan></text>
    <text
       xml:space="preserve"
       style="font-size:40px;font-style:normal;font-variant:normal;font-weight:normal;font-stretch:normal;line-height:125%;letter-spacing:0px;word-spacing:0px;fill:#333333;fill-opacity:1;stroke:none;font-family:Sans;-inkscape-font-specification:Helvetica"
       x="331"
       y="974.36218"
       id="text13505"
       sodipodi:linespacing="125%"><tspan
         sodipodi:role="line"
         id="tspan13507"
         x="331"
         y="974.36218"
         style="font-size:10px;font-style:normal;font-variant:normal;font-weight:bold;font-stretch:normal;fill:#333333;fill-opacity:1;font-family:Helvetica Neue LT Std;-inkscape-font-specification:Helvetica Neue LT Std Bold">Gender Equality</tspan></text>
    <text
       sodipodi:linespacing="125%"
       id="text13509"
       y="994.36218"
       x="331"
       style="font-size:40px;font-style:normal;font-variant:normal;font-weight:normal;font-stretch:normal;line-height:125%;letter-spacing:0px;word-spacing:0px;fill:#333333;fill-opacity:1;stroke:none;font-family:Sans;-inkscape-font-specification:Helvetica"
       xml:space="preserve"><tspan
         style="font-size:10px;font-style:normal;font-variant:normal;font-weight:bold;font-stretch:normal;fill:#333333;fill-opacity:1;font-family:Helvetica Neue LT Std;-inkscape-font-specification:Helvetica Neue LT Std Bold"
         y="994.36218"
         x="331"
         id="tspan13511"
         sodipodi:role="line">Environment</tspan></text>
    <text
       xml:space="preserve"
       style="font-size:40px;font-style:normal;font-variant:normal;font-weight:normal;font-stretch:normal;line-height:125%;letter-spacing:0px;word-spacing:0px;fill:#333333;fill-opacity:1;stroke:none;font-family:Sans;-inkscape-font-specification:Helvetica"
       x="331"
       y="1014.3622"
       id="text13513"
       sodipodi:linespacing="125%"><tspan
         sodipodi:role="line"
         id="tspan13515"
         x="331"
         y="1014.3622"
         style="font-size:10px;font-style:normal;font-variant:normal;font-weight:bold;font-stretch:normal;fill:#333333;fill-opacity:1;font-family:Helvetica Neue LT Std;-inkscape-font-specification:Helvetica Neue LT Std Bold">Child Mortality</tspan></text>
    <text
       sodipodi:linespacing="125%"
       id="text13517"
       y="1034.3622"
       x="331"
       style="font-size:40px;font-style:normal;font-variant:normal;font-weight:normal;font-stretch:normal;line-height:125%;letter-spacing:0px;word-spacing:0px;fill:#333333;fill-opacity:1;stroke:none;font-family:Sans;-inkscape-font-specification:Helvetica"
       xml:space="preserve"><tspan
         style="font-size:10px;font-style:normal;font-variant:normal;font-weight:bold;font-stretch:normal;fill:#333333;fill-opacity:1;font-family:Helvetica Neue LT Std;-inkscape-font-specification:Helvetica Neue LT Std Bold"
         y="1034.3622"
         x="331"
         id="tspan13519"
         sodipodi:role="line">Partnership</tspan></text>
    <rect
       transform="matrix(0.70710678,0.70710678,-0.70710678,0.70710678,0,0)"
       style="color:#000000;fill:#ffffff;fill-opacity:1;fill-rule:nonzero;stroke:none;stroke-width:1;marker:none;visibility:visible;display:inline;overflow:visible;enable-background:accumulate"
       id="rect15156"
       width="2"
       height="8"
       x="743.83899"
       y="729.52527" />
    <rect
       y="-748.83899"
       x="732.52527"
       height="8"
       width="2.0000005"
       id="rect15158"
       style="color:#000000;fill:#ffffff;fill-opacity:1;fill-rule:nonzero;stroke:none;stroke-width:1;marker:none;visibility:visible;display:inline;overflow:visible;enable-background:accumulate"
       transform="matrix(-0.70710678,0.70710678,-0.70710678,-0.70710678,0,0)" />
    <path
       style="color:#000000;fill:#7b39b1;fill-opacity:1;fill-rule:nonzero;stroke:none;stroke-width:1;marker:none;visibility:visible;display:inline;overflow:visible;enable-background:accumulate"
       d="m 0,1072.3621 0,40.0001 40,0 0,-40.0001 z"
       id="path32076"
       inkscape:connector-curvature="0"
       sodipodi:nodetypes="ccccc" />
    <path
       sodipodi:nodetypes="cccccccccccc"
       inkscape:connector-curvature="0"
       id="path32078"
       d="m 8,1083.3622 0,14.9698 10,0.03 0,-11 -4,0 0,-4 z m 7,0 0,3 3,0 0,-2.9698 z"
       style="color:#000000;fill:#ffffff;fill-opacity:1;fill-rule:nonzero;stroke:none;stroke-width:1;marker:none;visibility:visible;display:inline;overflow:visible;enable-background:accumulate" />
    <path
       sodipodi:nodetypes="ccccc"
       inkscape:connector-curvature="0"
       style="color:#000000;fill:#ffffff;fill-opacity:1;fill-rule:nonzero;stroke:none;stroke-width:1;marker:none;visibility:visible;display:inline;overflow:visible;enable-background:accumulate"
       d="m 22,1086.3622 0,11 8,0 0,-11 z"
       id="path32080" />
    <path
       sodipodi:nodetypes="ccccccc"
       id="path32082"
       d="m 25,1098.3622 0,1 7,0 0,-11 -1,0 0,10 z"
       style="color:#000000;fill:#ffffff;fill-opacity:1;fill-rule:nonzero;stroke:none;stroke-width:1;marker:none;visibility:visible;display:inline;overflow:visible;enable-background:accumulate"
       inkscape:connector-curvature="0" />
    <rect
       y="1087.3622"
       x="27"
       height="3.000015"
       width="1.0000018"
       id="rect32084"
       style="color:#000000;fill:#7b39b1;fill-opacity:1;fill-rule:nonzero;stroke:none;stroke-width:1;marker:none;visibility:visible;display:inline;overflow:visible;enable-background:accumulate" />
    <rect
       style="color:#000000;fill:#7b39b1;fill-opacity:1;fill-rule:nonzero;stroke:none;stroke-width:1;marker:none;visibility:visible;display:inline;overflow:visible;enable-background:accumulate"
       id="rect32669"
       width="1.0000018"
       height="3.000015"
       x="1088.3622"
       y="-29.000008"
       transform="matrix(0,1,-1,0,0,0)" />
    <path
       style="color:#000000;fill:#ffffff;fill-opacity:1;fill-rule:nonzero;stroke:none;stroke-width:1;marker:none;visibility:visible;display:inline;overflow:visible;enable-background:accumulate"
       d="m 82.272542,884.08964 3,3 -3,3 c -1,1 1,3 2,2 l 5,-5 -4.844927,-4.74155 c -1.155073,-1.25845 -3.103383,0.79323 -2.155073,1.74155 z"
       id="rect7239"
       inkscape:connector-curvature="0"
       sodipodi:nodetypes="ccccccc" />
    <path
       style="color:#000000;fill:#ffffff;fill-opacity:1;fill-rule:nonzero;stroke:none;stroke-width:1;marker:none;visibility:visible;display:inline;overflow:visible;enable-background:accumulate"
       d="m 34,883.36218 0,3 -3,0 0,2 3,0 0,3 2,0 0,-3 3,0 0,-2 -3,0 0,-3 -2,0 z"
       id="rect7227"
       inkscape:connector-curvature="0" />
    <path
       style="color:#000000;fill:#333333;fill-opacity:1;fill-rule:nonzero;stroke:none;stroke-width:1;marker:none;visibility:visible;display:inline;overflow:visible;enable-background:accumulate"
       d="M 7.40625,884.29968 6,885.70593 l 2.125,2.125 -2.125,2.125 1.40625,1.40625 2.125,-2.125 2.125,2.125 1.40625,-1.40625 -2.125,-2.125 2.125,-2.125 -1.40625,-1.40625 -2.125,2.125 -2.125,-2.125 z"
       id="rect7233"
       inkscape:connector-curvature="0" />
    <rect
       transform="matrix(0,1,-1,0,0,0)"
       style="color:#000000;fill:#ffffff;fill-opacity:1;fill-rule:nonzero;stroke:none;stroke-width:1;marker:none;visibility:visible;display:inline;overflow:visible;enable-background:accumulate"
       id="rect7237"
       width="2.0000005"
       height="6"
       x="886.36218"
       y="-63" />
    <path
       sodipodi:nodetypes="ccccccc"
       inkscape:connector-curvature="0"
       id="path3067"
       d="m 113,884.08964 -3,3 3,3 c 1,1 -1,3 -2,2 l -5,-5 4.84493,-4.74155 C 112,881.08964 113.94831,883.14132 113,884.08964 z"
       style="color:#000000;fill:#ffffff;fill-opacity:1;fill-rule:nonzero;stroke:none;stroke-width:1;marker:none;visibility:visible;display:inline;overflow:visible;enable-background:accumulate" />
    <path
       transform="translate(0,802.36218)"
       sodipodi:nodetypes="cccccccccccccccccccc"
       style="fill:#ffffff;fill-opacity:1;stroke:none;display:inline"
       d="m 127,79 0,2 0,8 0,2 2,0 14,0 0,-2 0,-8 0,-2 -2,0 z m 3,2 10,0 1,1 0,6 -1,1 -10,0 -1,-1 0,-6 z"
       id="path3991"
       inkscape:connector-curvature="0" />
    <rect
       style="color:#000000;fill:#ffffff;fill-opacity:1;fill-rule:nonzero;stroke:none;stroke-width:1;marker:none;visibility:visible;display:inline;overflow:visible;enable-background:accumulate"
       id="rect3997"
       width="8"
       height="4"
       x="131"
       y="885.36218" />
    <path
       transform="translate(0,802.36218)"
       inkscape:connector-curvature="0"
       id="path3337"
       d="m 152,79 0,2 0,8 0,2 2,0 14,0 0,-2 0,-8 0,-2 -2,0 z m 3,2 10,0 1,1 0,6 -1,1 -10,0 -1,-1 0,-6 z"
       style="fill:#ffffff;fill-opacity:1;stroke:none;display:inline"
       sodipodi:nodetypes="cccccccccccccccccccc" />
    <rect
       y="887.36218"
       x="160"
       height="2.0000026"
       width="4"
       id="rect3339"
       style="color:#000000;fill:#ffffff;fill-opacity:1;fill-rule:nonzero;stroke:none;stroke-width:1;marker:none;visibility:visible;display:inline;overflow:visible;enable-background:accumulate" />
    <path
       style="color:#000000;fill:#c8c605;fill-opacity:1;fill-rule:nonzero;stroke:none;stroke-width:1;marker:none;visibility:visible;display:inline;overflow:visible;enable-background:accumulate"
       d="m 195,907.36218 0,60 60,0 0,-60 z"
       id="path4225"
       inkscape:connector-curvature="0"
       sodipodi:nodetypes="ccccc" />
    <path
       style="fill:#ffffff;fill-opacity:1;stroke:none"
       d="m 208,937.36218 c 0,8 4,15 9,15 l 15,0 c 6,0 9,-7 9,-15 z"
       id="path4227"
       inkscape:connector-curvature="0"
       sodipodi:nodetypes="ccccc" />
    <path
       style="fill:#ffffff;fill-opacity:1;stroke:none"
       d="m 223,934.36218 7,0 7,-7 c 0,0 2,-2 0,-4 -2,-2 -4,0 -4,0 z"
       id="path4229"
       inkscape:connector-curvature="0"
       sodipodi:nodetypes="ccczcc" />
    <path
       style="color:#000000;fill:#6ab139;fill-opacity:1;fill-rule:nonzero;stroke:none;stroke-width:1;marker:none;visibility:visible;display:inline;overflow:visible;enable-background:accumulate"
       d="m 130,907.36218 0,60.00002 60,0 0,-60.00002 z"
       id="path4231"
       inkscape:connector-curvature="0"
       sodipodi:nodetypes="ccccc" />
    <rect
       y="922.36218"
       x="151"
       height="30.000006"
       width="5"
       id="rect4233"
       style="color:#000000;fill:#ffffff;fill-opacity:1;fill-rule:nonzero;stroke:none;stroke-width:1;marker:none;visibility:visible;display:inline;overflow:visible;enable-background:accumulate" />
    <path
       sodipodi:nodetypes="ccc"
       inkscape:connector-curvature="0"
       id="path4237"
       d="m 170,934.36218 c -7,0 -10,2 -10,10 6,0 10,-2 10,-10 z"
       style="fill:#ffffff;fill-opacity:1;stroke:none;display:inline" />
    <path
       style="fill:#ffffff;fill-opacity:1;stroke:none;display:inline"
       d="m 170,922.36218 c -7,0 -10,2 -10,10 6,0 10,-2 10,-10 z"
       id="path4239"
       inkscape:connector-curvature="0"
       sodipodi:nodetypes="ccc" />
    <path
       sodipodi:nodetypes="ccccc"
       inkscape:connector-curvature="0"
       id="path4241"
       d="m 125,907.3622 0,60 -60,0 0,-60 z"
       style="color:#000000;fill:#ff5640;fill-opacity:1;fill-rule:nonzero;stroke:none;stroke-width:1;marker:none;visibility:visible;display:inline;overflow:visible;enable-background:accumulate" />
    <path
       id="path4243"
       d="m 100,922.3622 0,10 10,0 0,10 -10,0 0,10 -10,0 0,-10 -10,0 0,-10 10,0 0,-10 z"
       style="color:#000000;fill:#ffffff;fill-opacity:1;fill-rule:nonzero;stroke:none;stroke-width:1;marker:none;visibility:visible;display:inline;overflow:visible;enable-background:accumulate"
       inkscape:connector-curvature="0"
       sodipodi:nodetypes="ccccccccccccc" />
    <path
       sodipodi:nodetypes="ccccc"
       inkscape:connector-curvature="0"
       id="path4245"
       d="m 60,907.3622 0,60 -60,0 0,-60 z"
       style="color:#000000;fill:#049fd9;fill-opacity:1;fill-rule:nonzero;stroke:none;stroke-width:1;marker:none;visibility:visible;display:inline;overflow:visible;enable-background:accumulate" />
    <path
       sodipodi:nodetypes="cccccc"
       inkscape:connector-curvature="0"
       id="path4249"
       d="m 47,930.3622 -34,0 0,-3 17,-8 17,8 z"
       style="fill:#ffffff;fill-opacity:1;stroke:none" />
    <rect
       y="933.36218"
       x="-44"
       height="13"
       width="4"
       id="rect4251"
       style="color:#000000;fill:#ffffff;fill-opacity:1;fill-rule:nonzero;stroke:none;stroke-width:1;marker:none;visibility:visible;display:inline;overflow:visible;enable-background:accumulate"
       transform="scale(-1,1)" />
    <rect
       transform="matrix(0,1,1,0,0,0)"
       y="13"
       x="949.36218"
       height="34.000004"
       width="4.0001264"
       id="rect4259"
       style="color:#000000;fill:#ffffff;fill-opacity:1;fill-rule:nonzero;stroke:none;stroke-width:1;marker:none;visibility:visible;display:inline;overflow:visible;enable-background:accumulate" />
    <rect
       style="color:#000000;fill:#ffffff;fill-opacity:1;fill-rule:nonzero;stroke:none;stroke-width:1;marker:none;visibility:visible;display:inline;overflow:visible;enable-background:accumulate"
       id="rect4273"
       width="4"
       height="13"
       x="-36"
       y="933.36218"
       transform="scale(-1,1)" />
    <rect
       y="933.36218"
       x="-28"
       height="13"
       width="4"
       id="rect4275"
       style="color:#000000;fill:#ffffff;fill-opacity:1;fill-rule:nonzero;stroke:none;stroke-width:1;marker:none;visibility:visible;display:inline;overflow:visible;enable-background:accumulate"
       transform="scale(-1,1)" />
    <rect
       style="color:#000000;fill:#ffffff;fill-opacity:1;fill-rule:nonzero;stroke:none;stroke-width:1;marker:none;visibility:visible;display:inline;overflow:visible;enable-background:accumulate"
       id="rect4277"
       width="4"
       height="13"
       x="-20"
       y="933.36218"
       transform="scale(-1,1)" />
    <path
       inkscape:connector-curvature="0"
       id="path4298"
       d="m 28,984.36218 0,17.00002 15,0 0,-14.00002 -4,0 0,-3 z m 12,0 0,2 3,0 0,-2 z"
       style="fill:#dd4b39;fill-opacity:1;stroke:none"
       sodipodi:nodetypes="cccccccccccc" />
    <path
       style="color:#000000;fill:#ffffff;fill-opacity:1;fill-rule:nonzero;stroke:none;stroke-width:1;marker:none;visibility:visible;display:inline;overflow:visible;enable-background:accumulate"
       d="m 31,990.36218 0,6.00002 1,0 0,-2.00002 1,0 1,0 0,-3 0,-1 -2,0 -1,0 z m 1,1 1,0 0,2 -1,0 0,-2 z"
       id="rect3054"
       inkscape:connector-curvature="0" />
    <path
       style="color:#000000;fill:#ffffff;fill-opacity:1;fill-rule:nonzero;stroke:none;stroke-width:1;marker:none;visibility:visible;display:inline;overflow:visible;enable-background:accumulate"
       d="m 35,990.36218 0,6.00002 1,0 1,0 1,-1 0,-4.00002 -1,-1 -1,0 -1,0 z m 1,1 1,0 0,4.00002 -1,0 0,-4.00002 z"
       id="rect3062"
       inkscape:connector-curvature="0" />
    <path
       style="color:#000000;fill:#ffffff;fill-opacity:1;fill-rule:nonzero;stroke:none;stroke-width:1;marker:none;visibility:visible;display:inline;overflow:visible;enable-background:accumulate"
       d="m 39,990.36218 0,6.00002 1,0 0,-2.00002 1,0 0,-1 -1,0 0,-2 1,0 0,-1 -1,0 -1,0 z"
       id="rect3071"
       inkscape:connector-curvature="0" />
    <path
       sodipodi:nodetypes="cccccccccccc"
       style="fill:#0493c9;fill-opacity:1;stroke:none"
       d="m 3,984.36218 0,17.00002 15,0 0,-14.00002 -4,0 0,-3 z m 12,0 0,2 3,0 0,-2 z"
       id="path3870"
       inkscape:connector-curvature="0" />
    <path
       inkscape:connector-curvature="0"
       id="path3874"
       d="m 6,990.36218 0,6.00002 1,0 1,0 1,-1 0,-4.00002 -1,-1 -1,0 -1,0 z m 1,1 1,0 0,4.00002 -1,0 0,-4.00002 z"
       style="color:#000000;fill:#ffffff;fill-opacity:1;fill-rule:nonzero;stroke:none;stroke-width:1;marker:none;visibility:visible;display:inline;overflow:visible;enable-background:accumulate" />
    <path
       style="color:#000000;fill:#ffffff;fill-opacity:1;fill-rule:nonzero;stroke:none;stroke-width:1;marker:none;visibility:visible;display:inline;overflow:visible;enable-background:accumulate"
       d="m 10,990.36218 0,1 0,4 0,1 3,0 0,-1 0,-4 0,-1 z m 1,1 1,0 0,4 -1,0 z"
       id="rect3878"
       inkscape:connector-curvature="0"
       sodipodi:nodetypes="cccccccccccccc" />
    <path
       style="color:#000000;fill:#ffffff;fill-opacity:1;fill-rule:nonzero;stroke:none;stroke-width:1;marker:none;visibility:visible;display:inline;overflow:visible;enable-background:accumulate"
       d="m 15,990.36218 -1,0 0,6 1,0 1,0 0,-1 -1,0 0,-4 1,0 0,-1 z"
       id="rect3894"
       inkscape:connector-curvature="0"
       sodipodi:nodetypes="ccccccccccc" />
    <rect
       style="color:#000000;fill:#ffffff;fill-opacity:1;fill-rule:nonzero;stroke:none;stroke-width:1;marker:none;visibility:visible;display:inline;overflow:visible;enable-background:accumulate"
       id="rect3906"
       width="1"
       height="1"
       x="4"
       y="995.36218" />
    <rect
       y="995.36218"
       x="29"
       height="1"
       width="1"
       id="rect3908"
       style="color:#000000;fill:#ffffff;fill-opacity:1;fill-rule:nonzero;stroke:none;stroke-width:1;marker:none;visibility:visible;display:inline;overflow:visible;enable-background:accumulate" />
  </g>
</svg>
